<svg width="122" height="64" viewBox="0 0 122 64" fill="none" xmlns="http://www.w3.org/2000/svg">
<path d="M59.695 23.8832C59.4366 23.4382 58.1819 23.5494 58.1819 24.1428C57.0009 24.1057 56.8533 24.5507 55.8569 24.2911C54.9712 23.8461 55.3771 21.8808 54.9712 21.3245C54.8235 21.0279 54.7866 20.7312 54.7128 20.3975C54.4914 20.1379 54.27 19.8412 54.0485 19.5817C54.4545 19.285 54.1962 18.8771 53.3105 18.3209C53.3474 18.3209 54.6021 16.6893 54.6021 16.578C55.0819 16.096 54.7497 15.2802 54.7128 15.2802C53.9747 15.651 52.8676 12.6473 52.8307 12.7957C52.5724 13.1294 52.4247 13.5373 52.3878 13.9823C51.9819 14.1306 51.3176 13.5002 51.0224 13.2777C51.0224 12.2394 48.9188 10.7561 48.6605 9.79202C48.6605 9.75493 47.9224 9.12454 47.8486 9.01329C47.5902 8.67955 47.3688 8.30873 47.1843 7.93791C46.7783 7.12211 46.4831 6.23214 46.2248 5.34217C45.8926 4.15555 45.9295 1.63397 44.2319 1.5598C43.4938 1.11482 41.1319 0.224852 40.3938 1.00357C40.3938 0.781082 36.7402 0.632754 36.6664 0.669836C36.9986 0.37318 33.7141 -0.0347225 33.345 0.00235952C31.7212 0.18777 32.0903 1.74521 30.0236 1.48564C28.695 0.521508 21.0558 1.67105 20.8343 3.33974C20.0224 3.97014 19.3212 4.56345 18.5093 5.23093C18.3986 5.23093 18.1034 5.78716 18.0296 5.93548C17.6236 6.12089 17.2177 6.26922 16.7379 6.26922C18.5831 6.23214 12.8629 6.38047 13.8224 6.38047C15.151 6.38047 13.7855 7.56709 13.601 7.67834C13.4903 7.78959 13.3796 7.90083 13.2689 8.01208L12.5677 7.56709C12.5677 7.56709 12.3463 7.19627 12.3463 7.23336C12.5677 7.12211 12.2355 5.97257 11.9034 6.00965C12.7522 5.8984 9.17245 9.90326 8.87721 10.0145C10.0582 9.71785 6.03555 11.8315 6.4046 11.8686C6.4046 12.0169 5.29746 11.7944 5.26056 12.6102C4.74389 12.0911 4.8177 14.3902 5.26056 14.9464C4.78079 15.651 3.96889 16.6522 3.56294 14.761C3.52604 14.9093 3.45223 14.9835 3.37842 14.9464C3.00937 15.0577 2.60342 15.0947 2.23437 15.0577C1.82842 14.6127 1.57009 17.2455 1.31175 17.9871C1.27485 18.2467 0.831993 20.3233 0.167709 20.3233C0.130804 20.3604 0.167709 20.4346 0.278423 20.5087C-0.275147 20.5829 0.167709 22.0291 0.167709 22.1032C0.315328 23.1786 1.05342 28.1105 0.868898 28.3701C0.905803 29.0005 1.49628 29.4084 1.53318 30.0388C1.53318 30.4096 1.57009 30.7804 1.38556 31.2254C2.04985 30.8917 3.59984 32.5233 3.19389 33.0795C5.03913 32.1525 4.48556 38.3823 4.33794 38.4564C4.48556 38.6789 7.69626 40.3476 5.92484 41.2376C6.18317 41.5342 5.99865 41.7567 5.77722 41.9792C5.51889 42.1275 5.22365 43.8704 5.29746 43.9446C5.29746 44.3895 4.22722 44.0929 4.52246 44.9087C4.41175 44.575 7.06888 48.0978 6.25698 47.6898C6.07246 47.6898 4.74389 48.4686 5.29746 48.8765C5.48198 51.3239 2.4927 60.1123 8.21293 58.592C8.32364 58.592 8.43436 58.592 8.54507 58.592C8.84031 58.4436 8.95102 59.519 8.87721 59.6303C8.7296 59.6303 7.80698 59.4819 7.73317 59.6303C7.29031 59.7415 6.88436 59.964 6.55222 60.3348C6.33079 60.409 5.5927 60.5202 5.44508 60.7056C4.89151 61.3731 7.80698 60.854 7.14269 60.9281C7.51174 60.3719 13.3796 64.7476 13.3058 63.3755C13.3058 61.8923 14.4498 63.6351 14.7451 63.4497C14.6712 63.3385 14.5605 63.2643 14.4867 63.1531C14.7451 62.7081 15.0034 62.5597 15.2986 62.671C15.3724 62.4485 15.9998 62.1889 16.2212 62.0777C16.4796 62.0777 17.6236 61.4473 17.2546 61.0023H17.2915C17.3653 61.1506 17.4391 61.0765 17.5498 60.8169C18.657 59.4078 20.2439 61.5956 20.4284 62.5597C20.0224 62.671 19.9855 63.116 20.3546 63.8576C20.3915 63.3385 21.0189 63.2272 21.0189 63.8205C21.3879 63.7464 21.6093 63.598 21.6093 63.3755C22.0153 62.7451 22.2736 62.6339 22.2736 61.9664C22.1629 61.8552 24.7093 60.9281 24.1558 60.9281C24.5248 61.1135 24.82 60.9281 25.0784 60.7056C25.5581 60.5944 26.37 59.4449 26.9605 60.4832C28.9534 63.3385 34.0831 55.8108 34.0462 55.8108C34.5998 55.8479 35.4855 56.1075 35.7807 56.2929C35.7069 56.2558 35.67 56.2929 35.6331 56.33L35.67 56.2929C34.9319 56.33 35.8914 57.6278 35.8914 56.4041C36.5188 54.068 37.2569 56.7008 38.2902 56.5154C38.3641 56.5154 41.6117 55.7737 41.0212 55.4771C41.1688 55.2917 41.1688 55.0692 41.0212 54.8838C41.0212 54.8467 41.0212 54.8096 41.0212 54.7725C41.87 53.1038 43.0879 54.6983 43.2724 54.5871C44.2688 54.068 43.7521 52.8813 44.4902 52.4363C45.3021 51.9172 47.5902 51.2497 48.2176 50.4339C48.1807 50.4339 49.2878 49.8406 49.2878 49.6181C49.62 49.8035 50.4319 49.3956 50.9116 49.6181C50.9486 49.6181 52.1664 50.2856 52.2033 49.7294C53.1259 50.3227 52.4247 48.5798 52.2033 48.3202C52.2402 47.5786 52.5355 47.0965 52.6831 46.4291C52.9783 46.4661 52.7938 46.0582 53.0152 46.0953C53.1628 46.1695 53.2366 46.1324 53.2735 46.0212C53.2735 46.0582 53.2735 46.0582 53.2366 46.0953C53.495 45.9099 54.7128 41.5342 55.1926 41.868C55.045 41.6084 55.414 40.8668 55.1188 40.4959C55.0081 40.6072 56.0414 39.3464 56.0414 39.6801C56.0414 39.1239 58.3295 39.1981 57.9973 38.4935C58.2557 38.4193 58.4771 37.8631 58.5878 37.5665C58.7354 37.5294 58.8092 37.4181 58.8092 37.3069C58.9569 37.3069 58.3664 36.4169 58.1081 36.1573C58.145 36.0461 58.5878 35.0078 58.5509 35.0078C58.5509 35.0078 58.5878 35.0078 58.5878 34.9707C58.5878 35.0078 58.5878 35.0078 58.5878 35.0449C59.5473 34.8595 59.6212 32.9683 58.3664 32.9312C58.3664 32.8941 57.8866 32.857 57.8866 32.82C57.8866 33.3391 56.5212 31.1142 57.2593 31.3738C58.1081 31.1142 58.6616 30.2613 58.3295 28.9634C58.0343 28.0735 58.1081 27.7397 58.2926 26.7385C58.3295 26.1081 60.1747 24.6619 59.695 23.8832Z" fill="url(#paint0_linear)"/>
<path d="M63.7045 10.3919C63.2296 10.5907 62.9129 10.9884 62.7546 11.5452C62.5963 12.1019 62.5172 13.0166 62.5172 14.2891V38.9851C62.5172 40.2179 62.5963 41.1326 62.7546 41.6893C62.9129 42.2461 63.2296 42.6438 63.7045 42.8426C64.1794 43.0414 64.9314 43.2005 66 43.2403V44.2345C63.9815 44.1549 61.0528 44.0754 57.2137 44.0754C53.2164 44.0754 50.2876 44.1152 48.4274 44.2345V43.28C49.6148 43.2403 50.4855 43.121 51.0396 42.8824C51.5937 42.6835 51.9499 42.2858 52.1478 41.7291C52.3456 41.1723 52.4644 40.2577 52.4644 39.0249V13.4938L40.5119 44.2345H39.7203L25.7493 12.261V34.5311C25.7493 36.9967 25.8285 38.7465 26.0264 39.8202C26.2243 40.894 26.6596 41.6893 27.3325 42.2063C28.0053 42.7233 29.153 43.0812 30.7361 43.3198V44.314C29.4301 44.2345 27.5699 44.1549 25.1557 44.1549C23.4142 44.1549 22.029 44.1947 21.0396 44.314V43.28C22.0686 43.0414 22.8206 42.6835 23.3351 42.2063C23.81 41.7291 24.1662 40.9735 24.3245 39.9793C24.4829 38.9851 24.562 37.5137 24.562 35.5253V14.2891C24.562 13.0563 24.4828 12.1417 24.285 11.5849C24.1266 11.0282 23.7704 10.6305 23.2955 10.4316C22.8206 10.2328 22.0686 10.0737 21 10.034V9.03977C21.9894 9.1193 23.3747 9.19884 25.1161 9.19884C29.1135 9.19884 32.5172 9.15907 35.3668 9.03977L44.7863 30.1566L52.8997 9.15907H57.2137C61.0528 9.15907 63.9815 9.1193 66 9V9.9942C64.9314 10.0737 64.1794 10.193 63.7045 10.3919Z" fill="#5C5E60"/>
<path d="M23.1841 55.0223C23.386 55.0223 23.5555 54.9983 23.6928 54.9501C23.8301 54.902 23.9391 54.8378 24.0198 54.7576C24.1033 54.6774 24.1625 54.5838 24.1975 54.4768C24.2351 54.3698 24.254 54.2562 24.254 54.1358C24.254 54.0101 24.2338 53.8978 24.1934 53.7989C24.1531 53.6972 24.0898 53.6117 24.0037 53.5421C23.9176 53.4699 23.8059 53.4151 23.6686 53.3777C23.534 53.3402 23.3712 53.3215 23.1801 53.3215H22.086V55.0223H23.1841ZM22.086 50.8986V52.5754H22.95C23.3214 52.5754 23.6013 52.5085 23.7897 52.3748C23.9808 52.2411 24.0763 52.0285 24.0763 51.737C24.0763 51.4348 23.9902 51.2195 23.818 51.0911C23.6457 50.9628 23.3766 50.8986 23.0105 50.8986H22.086ZM23.0105 50.0642C23.3927 50.0642 23.7197 50.1003 23.9916 50.1725C24.2634 50.2447 24.4854 50.3477 24.6577 50.4814C24.8326 50.6151 24.9605 50.7769 25.0412 50.9668C25.122 51.1566 25.1624 51.3706 25.1624 51.6086C25.1624 51.745 25.1422 51.876 25.1018 52.0017C25.0614 52.1247 24.9982 52.2411 24.912 52.3507C24.8286 52.4577 24.721 52.5553 24.5891 52.6436C24.4599 52.7318 24.3051 52.8067 24.1248 52.8682C24.9269 53.0474 25.3279 53.4779 25.3279 54.1599C25.3279 54.4059 25.2808 54.6332 25.1866 54.8418C25.0924 55.0504 24.9551 55.2309 24.7748 55.3834C24.5945 55.5331 24.3724 55.6508 24.1086 55.7364C23.8449 55.822 23.5434 55.8648 23.2043 55.8648H21V50.0642H23.0105Z" fill="#D6B891"/>
<path d="M34.3042 52.9645C34.3042 53.3897 34.2329 53.7841 34.0902 54.1479C33.9503 54.5089 33.7511 54.8218 33.4927 55.0865C33.2344 55.3513 32.9235 55.5585 32.5601 55.7083C32.1968 55.8554 31.7931 55.9289 31.349 55.9289C30.9076 55.9289 30.5052 55.8554 30.1419 55.7083C29.7785 55.5585 29.4663 55.3513 29.2052 55.0865C28.9469 54.8218 28.7463 54.5089 28.6037 54.1479C28.461 53.7841 28.3897 53.3897 28.3897 52.9645C28.3897 52.5393 28.461 52.1461 28.6037 51.7851C28.7463 51.4214 28.9469 51.1072 29.2052 50.8424C29.4663 50.5777 29.7785 50.3717 30.1419 50.2246C30.5052 50.0749 30.9076 50 31.349 50C31.645 50 31.9236 50.0348 32.1847 50.1043C32.4458 50.1712 32.6853 50.2674 32.9033 50.3931C33.1213 50.5161 33.3164 50.6672 33.4887 50.8464C33.6636 51.0229 33.8117 51.2208 33.9328 51.4401C34.0539 51.6594 34.1454 51.8974 34.2073 52.1542C34.2719 52.4109 34.3042 52.681 34.3042 52.9645ZM33.194 52.9645C33.194 52.6462 33.1509 52.3614 33.0648 52.11C32.9787 51.856 32.8562 51.6407 32.6974 51.4642C32.5386 51.2877 32.3448 51.1526 32.1161 51.059C31.89 50.9654 31.6343 50.9186 31.349 50.9186C31.0637 50.9186 30.8067 50.9654 30.5779 51.059C30.3518 51.1526 30.158 51.2877 29.9965 51.4642C29.8377 51.6407 29.7153 51.856 29.6291 52.11C29.543 52.3614 29.4999 52.6462 29.4999 52.9645C29.4999 53.2827 29.543 53.5689 29.6291 53.8229C29.7153 54.0743 29.8377 54.2883 29.9965 54.4648C30.158 54.6386 30.3518 54.7723 30.5779 54.8659C30.8067 54.9595 31.0637 55.0063 31.349 55.0063C31.6343 55.0063 31.89 54.9595 32.1161 54.8659C32.3448 54.7723 32.5386 54.6386 32.6974 54.4648C32.8562 54.2883 32.9787 54.0743 33.0648 53.8229C33.1509 53.5689 33.194 53.2827 33.194 52.9645Z" fill="#D6B891"/>
<path d="M40.0299 54.9943C40.2398 54.9943 40.4269 54.9595 40.5911 54.89C40.758 54.8204 40.8979 54.7228 41.011 54.5971C41.124 54.4714 41.2101 54.319 41.2693 54.1398C41.3312 53.9606 41.3622 53.7601 41.3622 53.5381V50.0642H42.4482V53.5381C42.4482 53.8831 42.3917 54.2027 42.2786 54.4968C42.1683 54.7883 42.0081 55.0411 41.7982 55.255C41.591 55.4663 41.338 55.6321 41.0392 55.7524C40.7405 55.8701 40.404 55.9289 40.0299 55.9289C39.6531 55.9289 39.3153 55.8701 39.0166 55.7524C38.7178 55.6321 38.4635 55.4663 38.2535 55.255C38.0463 55.0411 37.8862 54.7883 37.7731 54.4968C37.6628 54.2027 37.6076 53.8831 37.6076 53.5381V50.0642H38.6936V53.5341C38.6936 53.7561 38.7232 53.9566 38.7824 54.1358C38.8443 54.315 38.9318 54.4688 39.0448 54.5971C39.1606 54.7228 39.3005 54.8204 39.4647 54.89C39.6316 54.9595 39.82 54.9943 40.0299 54.9943Z" fill="#D6B891"/>
<path d="M50.1729 50.9507H48.4127V55.8648H47.3266V50.9507H45.5664V50.0642H50.1729V50.9507Z" fill="#D6B891"/>
<path d="M54.4492 55.8648H53.3591V50.0642H54.4492V55.8648Z" fill="#D6B891"/>
<path d="M58.9456 52.9645C58.9456 53.2827 58.9886 53.5689 59.0748 53.8229C59.1609 54.0743 59.2834 54.2883 59.4422 54.4648C59.6036 54.6386 59.7974 54.7723 60.0235 54.8659C60.2523 54.9595 60.5093 55.0063 60.7946 55.0063C61.0799 55.0063 61.3356 54.9595 61.5617 54.8659C61.7905 54.7723 61.9842 54.6386 62.143 54.4648C62.3018 54.2883 62.4243 54.0743 62.5104 53.8229C62.5966 53.5689 62.6396 53.2827 62.6396 52.9645C62.6396 52.6462 62.5966 52.3614 62.5104 52.11C62.4243 51.856 62.3018 51.6407 62.143 51.4642C61.9842 51.2877 61.7905 51.1526 61.5617 51.059C61.3356 50.9654 61.0799 50.9186 60.7946 50.9186C60.5093 50.9186 60.2523 50.9654 60.0235 51.059C59.7974 51.1526 59.6036 51.2877 59.4422 51.4642C59.2834 51.6407 59.1609 51.856 59.0748 52.11C58.9886 52.3614 58.9456 52.6462 58.9456 52.9645ZM64.0526 57H63.1564C63.0272 57 62.9101 56.9826 62.8051 56.9479C62.7029 56.9131 62.6087 56.8489 62.5225 56.7553L61.6667 55.8166C61.5294 55.8541 61.3881 55.8821 61.2428 55.9009C61.1001 55.9196 60.9507 55.9289 60.7946 55.9289C60.3532 55.9289 59.9508 55.8554 59.5875 55.7083C59.2242 55.5585 58.9119 55.3513 58.6509 55.0865C58.3925 54.8218 58.192 54.5089 58.0493 54.1479C57.9067 53.7841 57.8354 53.3897 57.8354 52.9645C57.8354 52.5393 57.9067 52.1461 58.0493 51.7851C58.192 51.4214 58.3925 51.1072 58.6509 50.8424C58.9119 50.5777 59.2242 50.3717 59.5875 50.2246C59.9508 50.0749 60.3532 50 60.7946 50C61.0907 50 61.3692 50.0348 61.6303 50.1043C61.8914 50.1712 62.1309 50.2674 62.3489 50.3931C62.567 50.5161 62.7621 50.6672 62.9343 50.8464C63.1093 51.0229 63.2573 51.2208 63.3784 51.4401C63.4995 51.6594 63.5911 51.8974 63.653 52.1542C63.7176 52.4109 63.7499 52.681 63.7499 52.9645C63.7499 53.2239 63.7229 53.4726 63.6691 53.7106C63.6153 53.9459 63.5372 54.1666 63.435 54.3725C63.3354 54.5784 63.2129 54.7683 63.0676 54.9421C62.9222 55.1133 62.7567 55.2644 62.571 55.3954L64.0526 57Z" fill="#D6B891"/>
<path d="M69.4715 54.9943C69.6814 54.9943 69.8685 54.9595 70.0327 54.89C70.1996 54.8204 70.3395 54.7228 70.4526 54.5971C70.5656 54.4714 70.6517 54.319 70.7109 54.1398C70.7728 53.9606 70.8038 53.7601 70.8038 53.5381V50.0642H71.8898V53.5381C71.8898 53.8831 71.8333 54.2027 71.7202 54.4968C71.6099 54.7883 71.4497 55.0411 71.2398 55.255C71.0326 55.4663 70.7796 55.6321 70.4808 55.7524C70.1821 55.8701 69.8456 55.9289 69.4715 55.9289C69.0947 55.9289 68.7569 55.8701 68.4582 55.7524C68.1594 55.6321 67.9051 55.4663 67.6951 55.255C67.4879 55.0411 67.3278 54.7883 67.2147 54.4968C67.1044 54.2027 67.0492 53.8831 67.0492 53.5381V50.0642H68.1352V53.5341C68.1352 53.7561 68.1648 53.9566 68.224 54.1358C68.2859 54.315 68.3734 54.4688 68.4864 54.5971C68.6022 54.7228 68.7421 54.8204 68.9063 54.89C69.0732 54.9595 69.2616 54.9943 69.4715 54.9943Z" fill="#D6B891"/>
<path d="M76.6269 50.9226V52.5312H78.6698V53.3616H76.6269V55.0023H79.2188V55.8648H75.5369V50.0642H79.2188V50.9226H76.6269Z" fill="#D6B891"/>
<path d="M90.0979 51.1192C90.0657 51.1754 90.0307 51.2168 89.993 51.2436C89.958 51.2676 89.9136 51.2797 89.8598 51.2797C89.8032 51.2797 89.7413 51.2596 89.674 51.2195C89.6095 51.1767 89.5314 51.1299 89.4399 51.0791C89.3484 51.0283 89.2407 50.9828 89.1169 50.9427C88.9958 50.8999 88.8518 50.8785 88.6849 50.8785C88.5342 50.8785 88.4023 50.8972 88.2893 50.9347C88.1762 50.9694 88.0807 51.0189 88.0026 51.0831C87.9273 51.1473 87.8708 51.2248 87.8331 51.3158C87.7954 51.404 87.7766 51.5016 87.7766 51.6086C87.7766 51.745 87.8142 51.8586 87.8896 51.9496C87.9677 52.0405 88.0699 52.1181 88.1964 52.1822C88.3229 52.2464 88.4669 52.3039 88.6284 52.3547C88.7899 52.4055 88.9554 52.4604 89.125 52.5192C89.2945 52.5754 89.4601 52.6422 89.6216 52.7198C89.783 52.7947 89.927 52.8909 90.0535 53.0086C90.18 53.1236 90.281 53.2653 90.3563 53.4338C90.4344 53.6023 90.4734 53.8069 90.4734 54.0476C90.4734 54.3096 90.4277 54.5557 90.3361 54.7857C90.2473 55.013 90.1154 55.2122 89.9405 55.3834C89.7682 55.5519 89.557 55.6856 89.3067 55.7845C89.0564 55.8808 88.7697 55.9289 88.4467 55.9289C88.261 55.9289 88.078 55.9102 87.8977 55.8728C87.7173 55.838 87.5437 55.7872 87.3769 55.7203C87.2127 55.6535 87.0579 55.5733 86.9126 55.4797C86.7673 55.3861 86.6381 55.2818 86.525 55.1668L86.844 54.6493C86.8709 54.6118 86.9059 54.5811 86.9489 54.557C86.992 54.5303 87.0378 54.5169 87.0862 54.5169C87.1535 54.5169 87.2262 54.545 87.3042 54.6011C87.3823 54.6546 87.4751 54.7148 87.5828 54.7817C87.6904 54.8485 87.8156 54.91 87.9582 54.9662C88.1036 55.0197 88.2772 55.0464 88.479 55.0464C88.7886 55.0464 89.0281 54.9742 89.1977 54.8298C89.3672 54.6827 89.452 54.4728 89.452 54.2C89.452 54.0476 89.413 53.9232 89.3349 53.8269C89.2596 53.7307 89.1586 53.6504 89.0321 53.5862C88.9056 53.5194 88.7616 53.4632 88.6001 53.4178C88.4387 53.3723 88.2745 53.3228 88.1076 53.2693C87.9407 53.2159 87.7766 53.1517 87.6151 53.0768C87.4536 53.0019 87.3096 52.9043 87.1831 52.784C87.0566 52.6636 86.9543 52.5138 86.8763 52.3347C86.8009 52.1528 86.7632 51.9295 86.7632 51.6648C86.7632 51.4535 86.8049 51.2476 86.8884 51.047C86.9745 50.8464 87.0983 50.6686 87.2598 50.5135C87.4213 50.3584 87.6205 50.234 87.8573 50.1404C88.0941 50.0468 88.366 50 88.6728 50C89.0173 50 89.3349 50.0535 89.6256 50.1605C89.9163 50.2674 90.1639 50.4172 90.3684 50.6097L90.0979 51.1192Z" fill="#D6B891"/>
<path d="M97.9207 50.9507H96.1604V55.8648H95.0744V50.9507H93.3142V50.0642H97.9207V50.9507Z" fill="#D6B891"/>
<path d="M106.477 52.9645C106.477 53.3897 106.406 53.7841 106.263 54.1479C106.123 54.5089 105.924 54.8218 105.666 55.0865C105.407 55.3513 105.096 55.5585 104.733 55.7083C104.37 55.8554 103.966 55.9289 103.522 55.9289C103.08 55.9289 102.678 55.8554 102.315 55.7083C101.951 55.5585 101.639 55.3513 101.378 55.0865C101.12 54.8218 100.919 54.5089 100.777 54.1479C100.634 53.7841 100.563 53.3897 100.563 52.9645C100.563 52.5393 100.634 52.1461 100.777 51.7851C100.919 51.4214 101.12 51.1072 101.378 50.8424C101.639 50.5777 101.951 50.3717 102.315 50.2246C102.678 50.0749 103.08 50 103.522 50C103.818 50 104.096 50.0348 104.358 50.1043C104.619 50.1712 104.858 50.2674 105.076 50.3931C105.294 50.5161 105.489 50.6672 105.662 50.8464C105.836 51.0229 105.985 51.2208 106.106 51.4401C106.227 51.6594 106.318 51.8974 106.38 52.1542C106.445 52.4109 106.477 52.681 106.477 52.9645ZM105.367 52.9645C105.367 52.6462 105.324 52.3614 105.238 52.11C105.152 51.856 105.029 51.6407 104.87 51.4642C104.711 51.2877 104.518 51.1526 104.289 51.059C104.063 50.9654 103.807 50.9186 103.522 50.9186C103.237 50.9186 102.98 50.9654 102.751 51.059C102.525 51.1526 102.331 51.2877 102.169 51.4642C102.011 51.6407 101.888 51.856 101.802 52.11C101.716 52.3614 101.673 52.6462 101.673 52.9645C101.673 53.2827 101.716 53.5689 101.802 53.8229C101.888 54.0743 102.011 54.2883 102.169 54.4648C102.331 54.6386 102.525 54.7723 102.751 54.8659C102.98 54.9595 103.237 55.0063 103.522 55.0063C103.807 55.0063 104.063 54.9595 104.289 54.8659C104.518 54.7723 104.711 54.6386 104.87 54.4648C105.029 54.2883 105.152 54.0743 105.238 53.8229C105.324 53.5689 105.367 53.2827 105.367 52.9645Z" fill="#D6B891"/>
<path d="M111.617 52.8241C111.822 52.8241 112 52.7987 112.15 52.7479C112.304 52.697 112.429 52.6275 112.526 52.5393C112.625 52.4483 112.699 52.3414 112.748 52.2183C112.796 52.0953 112.82 51.9603 112.82 51.8132C112.82 51.519 112.722 51.293 112.526 51.1352C112.332 50.9775 112.035 50.8986 111.634 50.8986H110.939V52.8241H111.617ZM114.411 55.8648H113.43C113.244 55.8648 113.11 55.7926 113.026 55.6481L111.799 53.7908C111.753 53.7213 111.702 53.6718 111.646 53.6424C111.592 53.613 111.511 53.5983 111.403 53.5983H110.939V55.8648H109.853V50.0642H111.634C112.029 50.0642 112.368 50.1056 112.651 50.1885C112.936 50.2688 113.169 50.3824 113.349 50.5295C113.532 50.6766 113.667 50.8531 113.753 51.059C113.839 51.2623 113.882 51.4869 113.882 51.733C113.882 51.9282 113.853 52.1127 113.793 52.2865C113.737 52.4604 113.653 52.6181 113.543 52.7599C113.435 52.9016 113.301 53.026 113.139 53.133C112.981 53.2399 112.799 53.3242 112.594 53.3857C112.664 53.4258 112.729 53.4739 112.788 53.5301C112.847 53.5836 112.901 53.6478 112.95 53.7226L114.411 55.8648Z" fill="#D6B891"/>
<path d="M118.554 50.9226V52.5312H120.597V53.3616H118.554V55.0023H121.146V55.8648H117.464V50.0642H121.146V50.9226H118.554Z" fill="#D6B891"/>
<defs>
<linearGradient id="paint0_linear" x1="-0.0168146" y1="31.9096" x2="59.7755" y2="31.9096" gradientUnits="userSpaceOnUse">
<stop stop-color="#DFD8D2"/>
<stop offset="1" stop-color="#FBF7F5"/>
</linearGradient>
</defs>
</svg>
